<?xml version="1.0" encoding="UTF-8"?><svg id="Layer_1" xmlns="http://www.w3.org/2000/svg" xmlns:xlink="http://www.w3.org/1999/xlink" viewBox="0 0 453.9 131.85"><defs><style>.cls-1{fill:url(#linear-gradient);}.cls-2{fill:url(#linear-gradient-3);}.cls-3{fill:url(#linear-gradient-4);}.cls-4{fill:url(#linear-gradient-2);}.cls-5{opacity:.5;}</style><linearGradient id="linear-gradient" x1="-4.85" y1="65.04" x2="465.73" y2="65.04" gradientTransform="translate(2.38 11.62) rotate(-1.65)" gradientUnits="userSpaceOnUse"><stop offset="0" stop-color="#fcb89f"/><stop offset="1" stop-color="#d89a7e"/></linearGradient><linearGradient id="linear-gradient-2" x1="307.63" y1="56.02" x2="307.9" y2="56.02" xlink:href="#linear-gradient"/><linearGradient id="linear-gradient-3" x1="360.86" y1="12.46" x2="363.97" y2="12.46" xlink:href="#linear-gradient"/><linearGradient id="linear-gradient-4" x1="365.1" y1="8.75" x2="365.39" y2="8.75" xlink:href="#linear-gradient"/></defs><g id="_1QgB5r" class="cls-5"><g><path class="cls-1" d="M451.66,.23c-7.41,7.92-14.81,15.85-22,23.96-15.51,17.46-32.21,33.49-51.45,46.83-11.32,7.85-23.09,14.9-35.13,21.56-.87,.48-1.43,.69-2.25-.29-2.74-3.23-5.42-6.55-8.48-9.46-6.87-6.51-13.11-13.57-18.89-21.07-1.47-1.91-1.48-1.91,.5-3.34,17.03-12.39,33.36-25.64,48.56-40.25,2.09-2.02,3.96-4.29,5.75-6.6,.51-.66,.71-2.05,.36-2.76-.29-.58-1.59-.87-2.47-.92-4.69-.26-8.94,1.42-13.03,3.42-11.68,5.73-22.75,12.47-32.82,20.73-3.99,3.29-7.81,6.87-11.33,10.67-1.52,1.65-2.44,4.09-3.03,6.33-.93,3.48,.89,6.4,2.92,9.05,1.09,1.4,1.06,2.16-.51,3.19-15.1,9.98-30.04,20.22-45.27,30.02-12.07,7.77-24.78,14.42-38.31,19.41-5.82,2.16-11.79,3.7-18.04,3.16-2.7-.23-5.39-.95-7.97-1.8-1.98-.64-3.11-2.33-2.79-4.5,.29-2.03,.57-4.22,1.48-6.01,2.01-3.98,4.2-7.94,6.73-11.6,5.81-8.4,12.02-16.55,17.79-24.97,2.79-4.08,5.16-8.48,7.38-12.9,.93-1.84,1.2-4.1,1.36-6.21,.14-1.91-1.02-2.78-2.91-2.33-1.94,.47-3.96,1.05-5.7,2.03-4.2,2.37-8.47,4.74-12.35,7.6-9.17,6.79-18.16,13.83-27.17,20.82-10.96,8.49-21.84,17.09-32.87,25.49-2.55,1.95-5.49,3.37-8.33,4.89-.9,.49-2.04,.53-3.07,.79-.11-.18-.23-.35-.35-.51,.52-1.11,.91-2.32,1.58-3.33,1.95-2.93,3.89-5.89,6.05-8.67,9.64-12.34,19.44-24.55,28.97-36.97,3.18-4.15,5.79-8.76,8.48-13.27,.79-1.33,1.1-3.03,1.3-4.58,.2-1.47-.8-2.31-2.25-1.95-1.56,.38-3.2,.8-4.52,1.63-5.87,3.77-11.85,7.43-17.42,11.63-10.97,8.32-20.95,17.8-30.54,27.66-13.08,13.46-25.9,27.16-38.92,40.68-2.59,2.7-5.51,5.1-8.4,7.51-.93,.77-2.19,1.22-3.38,1.55-1.24,.35-2.15-.18-2.03-1.65,.09-1.13,.08-2.33,.5-3.34,1.89-4.51,3.63-9.11,5.93-13.41,7.61-14.22,16.97-27.31,26.89-39.98,10.11-12.89,20.52-25.52,30.65-38.39,3.69-4.69,6.96-9.71,10.28-14.66,.77-1.13,1.17-2.63,1.35-4.01,.23-1.68-.64-2.58-2.3-2.36-1.94,.27-4,.55-5.69,1.42-5.26,2.69-10.63,5.28-15.5,8.58-18.5,12.52-36.78,25.41-55.24,38-14.86,10.14-29.72,20.28-45.62,28.78-8.54,4.57-17.14,9.01-26.69,11.2-.52,.12-.98,.47-1.47,.71,5.14-.5,10.05-1.73,14.57-4,8.86-4.45,17.99-8.5,26.32-13.81,18.04-11.49,35.68-23.6,53.39-35.61,12.62-8.55,24.96-17.51,37.65-25.93,4.64-3.07,9.91-5.22,14.98-7.58,1.22-.56,3.47-.92,4.15-.24,1.26,1.26,.06,3.07-.82,4.36-3.24,4.87-6.39,9.83-9.99,14.44-9.98,12.76-20.23,25.29-30.22,38.05-10.56,13.45-20.58,27.31-28.62,42.47-2.07,3.89-3.59,8.06-5.21,12.16-.45,1.13-.48,2.46-.48,3.69-.01,1.52,.93,2.45,2.4,2.2,1.49-.24,3.17-.58,4.3-1.46,3.05-2.38,6.04-4.9,8.74-7.67,14.6-14.98,28.96-30.19,43.71-45.02,10.99-11.07,22.66-21.47,35.74-30.09,3.23-2.14,6.72-3.86,10.14-5.69,.57-.31,1.36-.19,2.06-.27,0,.74,.26,1.6-.01,2.2-1.15,2.49-2.22,5.08-3.79,7.3-5.57,7.84-11.21,15.64-17.06,23.27-6.53,8.54-13.38,16.85-19.98,25.34-1.78,2.3-3.24,4.87-4.63,7.44-.44,.8-.54,2.25-.09,2.93,.34,.52,1.95,.63,2.76,.31,2.44-.94,4.97-1.89,7.07-3.37,6.55-4.6,13.05-9.29,19.36-14.21,11.9-9.32,23.52-19.03,35.54-28.18,6.39-4.87,13.37-9,20.18-13.28,1.67-1.06,3.75-1.48,5.68-2.07,1.02-.32,1.68,.23,1.54,1.31-.15,1.3-.22,2.69-.76,3.83-1.8,3.76-3.47,7.65-5.79,11.09-6.37,9.41-13.09,18.56-19.53,27.91-2.43,3.53-4.61,7.26-6.6,11.07-1.01,1.9-1.55,4.13-1.91,6.29-.55,3.28,.66,5.57,3.77,6.7,2.49,.91,5.17,1.51,7.81,1.73,7.01,.61,13.63-1.22,20.12-3.65,11.52-4.32,22.47-9.87,32.78-16.48,16.75-10.74,33.2-21.93,49.73-33,1.32-.88,2-.93,3,.43,5.8,7.93,12.38,15.17,19.6,21.85,2.58,2.39,4.86,5.1,7.24,7.7,.54,.59,.9,1.33,1.43,2.15-.8,.45-1.4,.83-2.04,1.13-8.84,4.09-17.57,8.43-26.55,12.17-9.49,3.94-19.24,7.23-28.81,10.98-2.87,1.13-5.63,2.65-8.2,4.35-2.67,1.76-2.35,4.3,.59,5.65,1.72,.79,3.58,1.36,5.43,1.76,11.34,2.47,22.7,2.29,33.94-.4,9.91-2.38,18.65-7,25.48-14.8,5.1-5.8,6.31-12.17,2.77-19.21-.5-.99-.25-1.48,.67-1.96,2.27-1.22,4.49-2.5,6.74-3.76,27.76-15.59,53-34.37,74.35-58.17,9.02-10.05,18.26-19.91,27.42-29.84,.61-.66,1.23-1.31,1.84-1.97-.75,.09-1.49,.17-2.24,.23Zm-139.9,58.44c-.09,.04-.18,.08-.26,.13-5.05-5.34-6.15-10.28-1.22-15.67,.46-.5,.92-1,1.4-1.49,.48-.5,.96-.99,1.44-1.48,1.94-1.94,3.97-3.8,6.06-5.59,1.04-.9,2.1-1.77,3.17-2.63,5.98-4.8,12.32-9.09,18.94-12.92,1.33-.76,2.67-1.51,4-2.24,1.35-.73,2.71-1.44,4.07-2.13s2.75-1.36,4.13-2.02c1.14-.54,2.29-1.05,3.46-1.5,2.6-1.01,5.3-1.73,8.17-1.79,.19,0,.37,0,.57,.02,.19,.01,.39,.04,.61,.06,.44,.05,.93,.12,1.55,.18-.09,.15-.18,.3-.26,.44-.16,.29-.32,.55-.46,.8-.22,.37-.41,.71-.62,1.01-.13,.19-.26,.38-.42,.55-.86,.99-1.71,1.99-2.59,2.96-.87,.99-1.77,1.94-2.71,2.85-7.53,7.27-15.35,14.21-23.42,20.85-2.02,1.66-4.04,3.31-6.09,4.93-1.02,.82-2.04,1.63-3.08,2.43-2.05,1.62-4.12,3.21-6.2,4.78-3.13,2.36-6.28,4.7-9.47,7-.24,.18-.51,.31-.78,.45Zm28.92,53.65c-5.7,7.76-13.52,12.5-22.44,15.59-6.16,2.13-12.54,2.98-19.01,2.99-6.22,.41-12.32-.2-18.3-1.81-1.67-.46-3.32-1.05-4.85-1.82-2.08-1.03-2.2-2.3-.28-3.57,1.94-1.27,3.96-2.49,6.11-3.34,7.76-3.08,15.6-5.98,23.4-8.97,11.67-4.46,23.11-9.45,34.08-15.43,1.31-.71,1.94-.56,2.59,.81,2.55,5.46,2.32,10.64-1.3,15.54Z"/><path class="cls-4" d="M311.5,58.8c.08-.05,.17-.09,.26-.13-.09,.05-.18,.09-.26,.14h0Z"/><path class="cls-2" d="M366.09,12.42c.16-.18,.29-.36,.42-.55-.13,.19-.26,.38-.41,.55-.87,.99-1.72,1.99-2.6,2.97,.88-.98,1.73-1.97,2.59-2.96Z"/><path class="cls-3" d="M367.86,9.61c-.09,.15-.18,.3-.27,.45,.08-.14,.17-.29,.26-.44h0Z"/></g></g></svg>