<?xml version="1.0" encoding="UTF-8"?><svg id="Layer_1" xmlns="http://www.w3.org/2000/svg" viewBox="0 0 389.72 66.14"><defs><style>.cls-1{fill:#303030;}</style></defs><g><path class="cls-1" d="M2.94,5V30.58H0V.42H4.07L15.25,26.72,26.51,.42h4.03V30.58h-2.9V5l-11.01,25.58h-2.77L2.94,5Z"/><path class="cls-1" d="M59.64,22.22h-14.07l-3.19,8.36h-3.11L50.99,.42h3.44l11.68,30.16h-3.32l-3.15-8.36Zm-13.11-2.56h12.1l-6.01-15.88-6.09,15.88Z"/><path class="cls-1" d="M74.84,30.58V.42h10.75c6.38,0,10.38,3.32,10.38,9.12,0,4.54-2.98,7.94-7.73,8.74l8.53,12.31h-3.78l-8.11-11.93h-6.89v11.93h-3.15Zm3.15-14.58h7.35c4.62,0,7.48-2.27,7.48-6.47s-2.86-6.47-7.48-6.47h-7.35v12.94Z"/><path class="cls-1" d="M105.8,30.58V.42h3.15V30.58h-3.15Z"/><path class="cls-1" d="M138.06,22.22h-14.07l-3.19,8.36h-3.11L129.4,.42h3.44l11.68,30.16h-3.32l-3.15-8.36Zm-13.11-2.56h12.1l-6.01-15.88-6.09,15.88Z"/><path class="cls-1" d="M176.44,31c-7.02,0-11.13-3.91-11.43-9.62h3.19c.29,4.28,2.98,7.06,8.19,7.06,4.28,0,7.65-2.18,7.65-5.8,0-3.11-1.76-4.54-6.05-5.42l-3.82-.76c-3.99-.8-8.19-2.65-8.19-7.9,0-4.83,4.24-8.57,10.25-8.57s10.42,3.7,10.75,9.45h-3.23c-.21-3.99-3.15-6.89-7.48-6.89-4.62,0-7.1,2.81-7.1,5.84,0,3.57,3.02,4.66,6.38,5.33l3.82,.8c5.08,1.05,7.98,3.15,7.98,7.69,0,4.79-3.91,8.78-10.92,8.78Z"/><path class="cls-1" d="M197.44,30.58V.42h3.15V13.65h17.14V.42h3.15V30.58h-3.15v-14.2h-17.14v14.2h-3.15Z"/><path class="cls-1" d="M249.98,30.58h-18.11V.42h17.81V3.15h-14.66V13.65h13.4v2.73h-13.4v11.47h14.96v2.73Z"/><path class="cls-1" d="M260.02,30.58V.42h10.75c6.39,0,10.38,3.32,10.38,9.12,0,4.54-2.98,7.94-7.73,8.74l8.53,12.31h-3.78l-8.11-11.93h-6.89v11.93h-3.15Zm3.15-14.58h7.35c4.62,0,7.48-2.27,7.48-6.47s-2.86-6.47-7.48-6.47h-7.35v12.94Z"/><path class="cls-1" d="M293.91,5V30.58h-2.94V.42h4.08l11.17,26.3L317.48,.42h4.03V30.58h-2.9V5l-11.01,25.58h-2.77l-10.92-25.58Z"/><path class="cls-1" d="M350.62,22.22h-14.07l-3.19,8.36h-3.11L341.96,.42h3.44l11.68,30.16h-3.32l-3.15-8.36Zm-13.11-2.56h12.1l-6.01-15.88-6.09,15.88Z"/><path class="cls-1" d="M368.76,4.87V30.58h-2.94V.42h3.49l17.43,25.37V.42h2.98V30.58h-3.36l-17.6-25.71Z"/></g><g><path class="cls-1" d="M64.29,59.95v5.88h-.73v-15.08h4.62c2.81,0,4.85,1.68,4.85,4.6s-2.04,4.6-4.85,4.6h-3.88Zm0-8.57v7.94h3.86c2.5,0,4.14-1.41,4.14-3.97s-1.64-3.97-4.14-3.97h-3.86Z"/><path class="cls-1" d="M88.21,65.83v-15.08h.74v6.97h9.62v-6.97h.73v15.08h-.73v-7.47h-9.62v7.47h-.74Z"/><path class="cls-1" d="M114.6,58.27c0-4.33,3.17-7.83,7.56-7.83s7.54,3.51,7.54,7.83-3.17,7.87-7.54,7.87-7.56-3.55-7.56-7.87Zm14.34,0c0-4.05-2.81-7.18-6.78-7.18s-6.8,3.13-6.8,7.18,2.83,7.22,6.8,7.22,6.78-3.17,6.78-7.22Z"/><path class="cls-1" d="M148.06,65.83v-14.45h-5.21v-.63h11.13v.63h-5.21v14.45h-.71Z"/><path class="cls-1" d="M167.12,58.27c0-4.33,3.17-7.83,7.56-7.83s7.54,3.51,7.54,7.83-3.17,7.87-7.54,7.87-7.56-3.55-7.56-7.87Zm14.34,0c0-4.05-2.81-7.18-6.78-7.18s-6.8,3.13-6.8,7.18,2.83,7.22,6.8,7.22,6.78-3.17,6.78-7.22Z"/><path class="cls-1" d="M196.67,58.31c0-4.43,3.11-7.87,7.45-7.87,3.99,0,6.47,2.54,7.24,5.46h-.76c-.74-2.69-2.92-4.81-6.51-4.81-3.99,0-6.68,3.13-6.68,7.22s2.83,7.18,6.78,7.18,6.26-2.44,6.63-6.28h-6.72v-.63h7.45c-.17,4.7-3.09,7.56-7.35,7.56s-7.56-3.36-7.56-7.83Z"/><path class="cls-1" d="M226.89,65.83v-15.08h5.1c2.88,0,4.75,1.6,4.75,4.39,0,2.39-1.6,4.12-4.09,4.35l4.45,6.34h-.88l-4.39-6.3h-4.2v6.3h-.74Zm.74-6.93h4.24c2.5,0,4.14-1.34,4.14-3.76s-1.64-3.76-4.14-3.76h-4.24v7.52Z"/><path class="cls-1" d="M260.99,61.17h-7.62l-1.83,4.66h-.69l5.96-15.08h.8l5.94,15.08h-.73l-1.83-4.66Zm-7.37-.63h7.12l-3.55-9.05-3.57,9.05Z"/><path class="cls-1" d="M279.39,59.95v5.88h-.74v-15.08h4.62c2.81,0,4.85,1.68,4.85,4.6s-2.04,4.6-4.85,4.6h-3.88Zm0-8.57v7.94h3.86c2.5,0,4.14-1.41,4.14-3.97s-1.64-3.97-4.14-3.97h-3.86Z"/><path class="cls-1" d="M303.31,65.83v-15.08h.73v6.97h9.62v-6.97h.74v15.08h-.74v-7.47h-9.62v7.47h-.73Z"/><path class="cls-1" d="M335.33,65.83h-.73v-5.65l-5.56-9.43h.82l5.12,8.71,5.14-8.71h.8l-5.58,9.43v5.65Z"/></g></svg>